# xmcd
#
# Track frame offsets: 
#        150
#        21683
#        48008
#        73711
#        99454
#        122646
#        138528
#        172641
#
# Disc length: 2708 seconds
#
# Revision: 2
# Processed by: cddbd v1.5.2PL0 Copyright (c) Steve Scherf et al.
# Submitted via: ExactAudioCopy v0.99pb4
#
DISCID=670a9208
DTITLE=GG and The Magic Band - Gotts Ta Go
DYEAR=1900
DGENRE=Blues
TTITLE0=Half Pint A Whisky
TTITLE1=You Belong To Me
TTITLE2=Come On 
TTITLE3=When the Sun Goes Down
TTITLE4=Slide It
TTITLE5=Trace of You
TTITLE6=What have I Done Wrong
TTITLE7=You Can Stay
EXTD=
EXTT0=
EXTT1=
EXTT2=
EXTT3=
EXTT4=
EXTT5=
EXTT6=
EXTT7=
PLAYORDER=
